<svg width="289" height="289" viewBox="0 0 289 289" fill="none" xmlns="http://www.w3.org/2000/svg">
<path d="M144 0L20 68.5V223.5L144 288.5L269 223.5V68.5L144 0Z" fill="url(#paint0_linear_6_21)"/>
<path fill-rule="evenodd" clip-rule="evenodd" d="M37 78L143 18L252 78V212L143 271.5L37 212V78ZM51 86.5L142.5 35L237 86.5V203L142.5 251L51 203V86.5Z" fill="url(#paint1_linear_6_21)"/>
<path d="M76.5 200L66 194V93L76.5 132V200Z" fill="#1E1B22"/>
<path d="M211 199.5L221.5 193.5V92.5L211 131.5V199.5Z" fill="#1E1B22"/>
<path d="M111.5 216L92 206.5V140.5L143.5 156V232.5L128.5 225V168.5L111.5 163V216Z" fill="#D9D9D9"/>
<path d="M175 216L194.5 206.5V140.5L143 156V232.5L158 225V168.5L175 163V216Z" fill="#9F9F9F"/>
<path d="M143 73V145.5L194.5 131.5L207.5 87.5L182.5 74V106L158 104V100L161 92.5V71L143 73Z" fill="#868686"/>
<path d="M80.5 87.5L92 131.5L143 145.5V110.5V73L128.5 71V92.5L132 100V104L105 106V74L80.5 87.5Z" fill="#D9D9D9"/>
<defs>
<linearGradient id="paint0_linear_6_21" x1="144.5" y1="0" x2="144.5" y2="288.5" gradientUnits="userSpaceOnUse">
<stop stop-color="#010024"/>
<stop offset="1" stop-color="#00000F"/>
</linearGradient>
<linearGradient id="paint1_linear_6_21" x1="144.5" y1="18" x2="144.5" y2="271.5" gradientUnits="userSpaceOnUse">
<stop stop-color="white"/>
<stop offset="1" stop-color="#373737"/>
</linearGradient>
</defs>
</svg>
